<?xml version="1.0" encoding="UTF-8" standalone="no"?>
<!DOCTYPE svg PUBLIC "-//W3C//DTD SVG 1.1//EN"
 "http://www.w3.org/Graphics/SVG/1.1/DTD/svg11.dtd">
<!-- Generated by graphviz version 5.0.0 (20220707.1540)
 -->
<!-- Title: dependencies Pages: 1 -->
<svg width="3377pt" height="247pt"
 viewBox="0.00 0.00 3377.00 246.80" xmlns="http://www.w3.org/2000/svg" xmlns:xlink="http://www.w3.org/1999/xlink">
<g id="graph0" class="graph" transform="scale(1 1) rotate(0) translate(4 242.8)">
<title>dependencies</title>
<polygon fill="white" stroke="transparent" points="-4,4 -4,-242.8 3373,-242.8 3373,4 -4,4"/>
<text text-anchor="middle" x="1684.5" y="-8.2" font-family="sans-serif" font-size="14.00">dependencies</text>
<g id="clust1" class="cluster">
<title>cluster_AppModule</title>
<polygon fill="none" stroke="black" stroke-dasharray="1,5" points="8,-32.8 8,-230.8 3361,-230.8 3361,-32.8 8,-32.8"/>
</g>
<g id="clust24" class="cluster">
<title>cluster_AppModule_imports</title>
<polygon fill="none" stroke="black" points="3209,-40.8 3209,-92.8 3353,-92.8 3353,-40.8 3209,-40.8"/>
</g>
<g id="clust26" class="cluster">
<title>cluster_AppModule_bootstrap</title>
<polygon fill="none" stroke="black" points="1399,-170.8 1399,-222.8 1523,-222.8 1523,-170.8 1399,-170.8"/>
</g>
<g id="clust2" class="cluster">
<title>cluster_AppModule_declarations</title>
<polygon fill="none" stroke="black" points="16,-40.8 16,-92.8 3201,-92.8 3201,-40.8 16,-40.8"/>
</g>
<!-- AppComponent -->
<g id="node1" class="node">
<title>AppComponent</title>
<polygon fill="#ffffb3" stroke="black" points="3192.94,-84.8 3087.06,-84.8 3087.06,-48.8 3192.94,-48.8 3192.94,-84.8"/>
<text text-anchor="middle" x="3140" y="-62.6" font-family="Times,serif" font-size="14.00">AppComponent</text>
</g>
<!-- AppModule -->
<g id="node22" class="node">
<title>AppModule</title>
<polygon fill="#8dd3c7" stroke="black" points="1502.66,-149.8 1499.66,-153.8 1478.66,-153.8 1475.66,-149.8 1419.34,-149.8 1419.34,-113.8 1502.66,-113.8 1502.66,-149.8"/>
<text text-anchor="middle" x="1461" y="-127.6" font-family="Times,serif" font-size="14.00">AppModule</text>
</g>
<!-- AppComponent&#45;&gt;AppModule -->
<g id="edge1" class="edge">
<title>AppComponent&#45;&gt;AppModule</title>
<path fill="none" stroke="black" d="M3140,-85.12C3140,-108.46 3140,-145.8 3140,-145.8 3140,-145.8 1512.92,-145.8 1512.92,-145.8"/>
<polygon fill="black" stroke="black" points="1512.92,-142.3 1502.92,-145.8 1512.92,-149.3 1512.92,-142.3"/>
</g>
<!-- BoardAdminComponent -->
<g id="node2" class="node">
<title>BoardAdminComponent</title>
<polygon fill="#ffffb3" stroke="black" points="3069.44,-84.8 2914.56,-84.8 2914.56,-48.8 3069.44,-48.8 3069.44,-84.8"/>
<text text-anchor="middle" x="2992" y="-62.6" font-family="Times,serif" font-size="14.00">BoardAdminComponent</text>
</g>
<!-- BoardAdminComponent&#45;&gt;AppModule -->
<g id="edge2" class="edge">
<title>BoardAdminComponent&#45;&gt;AppModule</title>
<path fill="none" stroke="black" d="M2966.26,-85.09C2966.26,-107.01 2966.26,-140.8 2966.26,-140.8 2966.26,-140.8 1512.83,-140.8 1512.83,-140.8"/>
<polygon fill="black" stroke="black" points="1512.83,-137.3 1502.83,-140.8 1512.83,-144.3 1512.83,-137.3"/>
</g>
<!-- BoardAdminComponent&#45;&gt;AppModule -->
<g id="edge3" class="edge">
<title>BoardAdminComponent&#45;&gt;AppModule</title>
<path fill="none" stroke="black" d="M3017.74,-84.81C3017.74,-107.29 3017.74,-142.8 3017.74,-142.8 3017.74,-142.8 1513.04,-142.8 1513.04,-142.8"/>
<polygon fill="black" stroke="black" points="1513.04,-139.3 1503.04,-142.8 1513.04,-146.3 1513.04,-139.3"/>
</g>
<!-- BoardModeratorComponent -->
<g id="node3" class="node">
<title>BoardModeratorComponent</title>
<polygon fill="#ffffb3" stroke="black" points="2896.14,-84.8 2721.86,-84.8 2721.86,-48.8 2896.14,-48.8 2896.14,-84.8"/>
<text text-anchor="middle" x="2809" y="-62.6" font-family="Times,serif" font-size="14.00">BoardModeratorComponent</text>
</g>
<!-- BoardModeratorComponent&#45;&gt;AppModule -->
<g id="edge4" class="edge">
<title>BoardModeratorComponent&#45;&gt;AppModule</title>
<path fill="none" stroke="black" d="M2779.89,-84.93C2779.89,-105.37 2779.89,-135.8 2779.89,-135.8 2779.89,-135.8 1513.02,-135.8 1513.02,-135.8"/>
<polygon fill="black" stroke="black" points="1513.02,-132.3 1503.02,-135.8 1513.02,-139.3 1513.02,-132.3"/>
</g>
<!-- BoardModeratorComponent&#45;&gt;AppModule -->
<g id="edge5" class="edge">
<title>BoardModeratorComponent&#45;&gt;AppModule</title>
<path fill="none" stroke="black" d="M2838.11,-85.08C2838.11,-106.12 2838.11,-137.8 2838.11,-137.8 2838.11,-137.8 1512.97,-137.8 1512.97,-137.8"/>
<polygon fill="black" stroke="black" points="1512.97,-134.3 1502.97,-137.8 1512.97,-141.3 1512.97,-134.3"/>
</g>
<!-- BoardUserComponent -->
<g id="node4" class="node">
<title>BoardUserComponent</title>
<polygon fill="#ffffb3" stroke="black" points="2703.98,-84.8 2562.02,-84.8 2562.02,-48.8 2703.98,-48.8 2703.98,-84.8"/>
<text text-anchor="middle" x="2633" y="-62.6" font-family="Times,serif" font-size="14.00">BoardUserComponent</text>
</g>
<!-- BoardUserComponent&#45;&gt;AppModule -->
<g id="edge6" class="edge">
<title>BoardUserComponent&#45;&gt;AppModule</title>
<path fill="none" stroke="black" d="M2656.66,-85.11C2656.66,-104.95 2656.66,-133.8 2656.66,-133.8 2656.66,-133.8 1512.85,-133.8 1512.85,-133.8"/>
<polygon fill="black" stroke="black" points="1512.85,-130.3 1502.85,-133.8 1512.85,-137.3 1512.85,-130.3"/>
</g>
<!-- BoardUserComponent&#45;&gt;AppModule -->
<g id="edge7" class="edge">
<title>BoardUserComponent&#45;&gt;AppModule</title>
<path fill="none" stroke="black" d="M2609.34,-84.97C2609.34,-103.89 2609.34,-130.8 2609.34,-130.8 2609.34,-130.8 1512.89,-130.8 1512.89,-130.8"/>
<polygon fill="black" stroke="black" points="1512.89,-127.3 1502.89,-130.8 1512.89,-134.3 1512.89,-127.3"/>
</g>
<!-- BreadcrumbComponent -->
<g id="node5" class="node">
<title>BreadcrumbComponent</title>
<polygon fill="#ffffb3" stroke="black" points="2544.03,-84.8 2393.97,-84.8 2393.97,-48.8 2544.03,-48.8 2544.03,-84.8"/>
<text text-anchor="middle" x="2469" y="-62.6" font-family="Times,serif" font-size="14.00">BreadcrumbComponent</text>
</g>
<!-- BreadcrumbComponent&#45;&gt;AppModule -->
<g id="edge8" class="edge">
<title>BreadcrumbComponent&#45;&gt;AppModule</title>
<path fill="none" stroke="black" d="M2469,-85.07C2469,-103.36 2469,-128.8 2469,-128.8 2469,-128.8 1512.71,-128.8 1512.71,-128.8"/>
<polygon fill="black" stroke="black" points="1512.71,-125.3 1502.71,-128.8 1512.71,-132.3 1512.71,-125.3"/>
</g>
<!-- CardComponent -->
<g id="node6" class="node">
<title>CardComponent</title>
<polygon fill="#ffffb3" stroke="black" points="2375.05,-84.8 2266.95,-84.8 2266.95,-48.8 2375.05,-48.8 2375.05,-84.8"/>
<text text-anchor="middle" x="2321" y="-62.6" font-family="Times,serif" font-size="14.00">CardComponent</text>
</g>
<!-- CardComponent&#45;&gt;AppModule -->
<g id="edge9" class="edge">
<title>CardComponent&#45;&gt;AppModule</title>
<path fill="none" stroke="black" d="M2321,-84.82C2321,-102.17 2321,-125.8 2321,-125.8 2321,-125.8 1512.77,-125.8 1512.77,-125.8"/>
<polygon fill="black" stroke="black" points="1512.77,-122.3 1502.77,-125.8 1512.77,-129.3 1512.77,-122.3"/>
</g>
<!-- CategoryComponent -->
<g id="node7" class="node">
<title>CategoryComponent</title>
<polygon fill="#ffffb3" stroke="black" points="2248.15,-84.8 2115.85,-84.8 2115.85,-48.8 2248.15,-48.8 2248.15,-84.8"/>
<text text-anchor="middle" x="2182" y="-62.6" font-family="Times,serif" font-size="14.00">CategoryComponent</text>
</g>
<!-- CategoryComponent&#45;&gt;AppModule -->
<g id="edge10" class="edge">
<title>CategoryComponent&#45;&gt;AppModule</title>
<path fill="none" stroke="black" d="M2182,-84.84C2182,-101.53 2182,-123.8 2182,-123.8 2182,-123.8 1512.88,-123.8 1512.88,-123.8"/>
<polygon fill="black" stroke="black" points="1512.88,-120.3 1502.88,-123.8 1512.88,-127.3 1512.88,-120.3"/>
</g>
<!-- ChartsComponent -->
<g id="node8" class="node">
<title>ChartsComponent</title>
<polygon fill="#ffffb3" stroke="black" points="2097.88,-84.8 1980.12,-84.8 1980.12,-48.8 2097.88,-48.8 2097.88,-84.8"/>
<text text-anchor="middle" x="2039" y="-62.6" font-family="Times,serif" font-size="14.00">ChartsComponent</text>
</g>
<!-- ChartsComponent&#45;&gt;AppModule -->
<g id="edge11" class="edge">
<title>ChartsComponent&#45;&gt;AppModule</title>
<path fill="none" stroke="black" d="M2039,-84.81C2039,-100.85 2039,-121.8 2039,-121.8 2039,-121.8 1513.03,-121.8 1513.03,-121.8"/>
<polygon fill="black" stroke="black" points="1513.03,-118.3 1503.03,-121.8 1513.03,-125.3 1513.03,-118.3"/>
</g>
<!-- ClientcardComponent -->
<g id="node9" class="node">
<title>ClientcardComponent</title>
<polygon fill="#ffffb3" stroke="black" points="1961.64,-84.8 1822.36,-84.8 1822.36,-48.8 1961.64,-48.8 1961.64,-84.8"/>
<text text-anchor="middle" x="1892" y="-62.6" font-family="Times,serif" font-size="14.00">ClientcardComponent</text>
</g>
<!-- ClientcardComponent&#45;&gt;AppModule -->
<g id="edge12" class="edge">
<title>ClientcardComponent&#45;&gt;AppModule</title>
<path fill="none" stroke="black" d="M1892,-84.99C1892,-99.98 1892,-118.8 1892,-118.8 1892,-118.8 1512.72,-118.8 1512.72,-118.8"/>
<polygon fill="black" stroke="black" points="1512.72,-115.3 1502.72,-118.8 1512.72,-122.3 1512.72,-115.3"/>
</g>
<!-- CompetitorComponent -->
<g id="node10" class="node">
<title>CompetitorComponent</title>
<polygon fill="#ffffb3" stroke="black" points="1804.6,-84.8 1659.4,-84.8 1659.4,-48.8 1804.6,-48.8 1804.6,-84.8"/>
<text text-anchor="middle" x="1732" y="-62.6" font-family="Times,serif" font-size="14.00">CompetitorComponent</text>
</g>
<!-- CompetitorComponent&#45;&gt;AppModule -->
<g id="edge13" class="edge">
<title>CompetitorComponent&#45;&gt;AppModule</title>
<path fill="none" stroke="black" d="M1732,-84.85C1732,-99.17 1732,-116.8 1732,-116.8 1732,-116.8 1512.75,-116.8 1512.75,-116.8"/>
<polygon fill="black" stroke="black" points="1512.75,-113.3 1502.75,-116.8 1512.75,-120.3 1512.75,-113.3"/>
</g>
<!-- CompetitorProductComponent -->
<g id="node11" class="node">
<title>CompetitorProductComponent</title>
<polygon fill="#ffffb3" stroke="black" points="1641.16,-84.8 1452.84,-84.8 1452.84,-48.8 1641.16,-48.8 1641.16,-84.8"/>
<text text-anchor="middle" x="1547" y="-62.6" font-family="Times,serif" font-size="14.00">CompetitorProductComponent</text>
</g>
<!-- CompetitorProductComponent&#45;&gt;AppModule -->
<g id="edge14" class="edge">
<title>CompetitorProductComponent&#45;&gt;AppModule</title>
<path fill="none" stroke="black" d="M1477.75,-84.91C1477.75,-84.91 1477.75,-103.79 1477.75,-103.79"/>
<polygon fill="black" stroke="black" points="1474.25,-103.79 1477.75,-113.79 1481.25,-103.79 1474.25,-103.79"/>
</g>
<!-- FooterComponent -->
<g id="node12" class="node">
<title>FooterComponent</title>
<polygon fill="#ffffb3" stroke="black" points="1434.88,-84.8 1317.12,-84.8 1317.12,-48.8 1434.88,-48.8 1434.88,-84.8"/>
<text text-anchor="middle" x="1376" y="-62.6" font-family="Times,serif" font-size="14.00">FooterComponent</text>
</g>
<!-- FooterComponent&#45;&gt;AppModule -->
<g id="edge15" class="edge">
<title>FooterComponent&#45;&gt;AppModule</title>
<path fill="none" stroke="black" d="M1427.06,-84.91C1427.06,-84.91 1427.06,-103.79 1427.06,-103.79"/>
<polygon fill="black" stroke="black" points="1423.56,-103.79 1427.06,-113.79 1430.56,-103.79 1423.56,-103.79"/>
</g>
<!-- HeaderComponent -->
<g id="node13" class="node">
<title>HeaderComponent</title>
<polygon fill="#ffffb3" stroke="black" points="1298.75,-84.8 1177.25,-84.8 1177.25,-48.8 1298.75,-48.8 1298.75,-84.8"/>
<text text-anchor="middle" x="1238" y="-62.6" font-family="Times,serif" font-size="14.00">HeaderComponent</text>
</g>
<!-- HeaderComponent&#45;&gt;AppModule -->
<g id="edge16" class="edge">
<title>HeaderComponent&#45;&gt;AppModule</title>
<path fill="none" stroke="black" d="M1238,-84.85C1238,-99.17 1238,-116.8 1238,-116.8 1238,-116.8 1409.32,-116.8 1409.32,-116.8"/>
<polygon fill="black" stroke="black" points="1409.32,-120.3 1419.32,-116.8 1409.32,-113.3 1409.32,-120.3"/>
</g>
<!-- HomeComponent -->
<g id="node14" class="node">
<title>HomeComponent</title>
<polygon fill="#ffffb3" stroke="black" points="1158.55,-84.8 1043.45,-84.8 1043.45,-48.8 1158.55,-48.8 1158.55,-84.8"/>
<text text-anchor="middle" x="1101" y="-62.6" font-family="Times,serif" font-size="14.00">HomeComponent</text>
</g>
<!-- HomeComponent&#45;&gt;AppModule -->
<g id="edge17" class="edge">
<title>HomeComponent&#45;&gt;AppModule</title>
<path fill="none" stroke="black" d="M1081.74,-84.81C1081.74,-100.85 1081.74,-121.8 1081.74,-121.8 1081.74,-121.8 1409.33,-121.8 1409.33,-121.8"/>
<polygon fill="black" stroke="black" points="1409.33,-125.3 1419.33,-121.8 1409.33,-118.3 1409.33,-125.3"/>
</g>
<!-- HomeComponent&#45;&gt;AppModule -->
<g id="edge18" class="edge">
<title>HomeComponent&#45;&gt;AppModule</title>
<path fill="none" stroke="black" d="M1120.26,-84.99C1120.26,-99.98 1120.26,-118.8 1120.26,-118.8 1120.26,-118.8 1409.22,-118.8 1409.22,-118.8"/>
<polygon fill="black" stroke="black" points="1409.22,-122.3 1419.22,-118.8 1409.22,-115.3 1409.22,-122.3"/>
</g>
<!-- LoginComponent -->
<g id="node15" class="node">
<title>LoginComponent</title>
<polygon fill="#ffffb3" stroke="black" points="1025.27,-84.8 910.73,-84.8 910.73,-48.8 1025.27,-48.8 1025.27,-84.8"/>
<text text-anchor="middle" x="968" y="-62.6" font-family="Times,serif" font-size="14.00">LoginComponent</text>
</g>
<!-- LoginComponent&#45;&gt;AppModule -->
<g id="edge19" class="edge">
<title>LoginComponent&#45;&gt;AppModule</title>
<path fill="none" stroke="black" d="M948.87,-84.82C948.87,-102.17 948.87,-125.8 948.87,-125.8 948.87,-125.8 1409.09,-125.8 1409.09,-125.8"/>
<polygon fill="black" stroke="black" points="1409.09,-129.3 1419.09,-125.8 1409.09,-122.3 1409.09,-129.3"/>
</g>
<!-- LoginComponent&#45;&gt;AppModule -->
<g id="edge20" class="edge">
<title>LoginComponent&#45;&gt;AppModule</title>
<path fill="none" stroke="black" d="M987.13,-84.84C987.13,-101.53 987.13,-123.8 987.13,-123.8 987.13,-123.8 1408.95,-123.8 1408.95,-123.8"/>
<polygon fill="black" stroke="black" points="1408.95,-127.3 1418.95,-123.8 1408.95,-120.3 1408.95,-127.3"/>
</g>
<!-- ProductComponent -->
<g id="node16" class="node">
<title>ProductComponent</title>
<polygon fill="#ffffb3" stroke="black" points="892.38,-84.8 767.62,-84.8 767.62,-48.8 892.38,-48.8 892.38,-84.8"/>
<text text-anchor="middle" x="830" y="-62.6" font-family="Times,serif" font-size="14.00">ProductComponent</text>
</g>
<!-- ProductComponent&#45;&gt;AppModule -->
<g id="edge21" class="edge">
<title>ProductComponent&#45;&gt;AppModule</title>
<path fill="none" stroke="black" d="M830,-85.07C830,-103.36 830,-128.8 830,-128.8 830,-128.8 1409.11,-128.8 1409.11,-128.8"/>
<polygon fill="black" stroke="black" points="1409.11,-132.3 1419.11,-128.8 1409.11,-125.3 1409.11,-132.3"/>
</g>
<!-- ProfileComponent -->
<g id="node17" class="node">
<title>ProfileComponent</title>
<polygon fill="#ffffb3" stroke="black" points="749.94,-84.8 630.06,-84.8 630.06,-48.8 749.94,-48.8 749.94,-84.8"/>
<text text-anchor="middle" x="690" y="-62.6" font-family="Times,serif" font-size="14.00">ProfileComponent</text>
</g>
<!-- ProfileComponent&#45;&gt;AppModule -->
<g id="edge22" class="edge">
<title>ProfileComponent&#45;&gt;AppModule</title>
<path fill="none" stroke="black" d="M670.09,-85.11C670.09,-104.95 670.09,-133.8 670.09,-133.8 670.09,-133.8 1409.31,-133.8 1409.31,-133.8"/>
<polygon fill="black" stroke="black" points="1409.31,-137.3 1419.31,-133.8 1409.31,-130.3 1409.31,-137.3"/>
</g>
<!-- ProfileComponent&#45;&gt;AppModule -->
<g id="edge23" class="edge">
<title>ProfileComponent&#45;&gt;AppModule</title>
<path fill="none" stroke="black" d="M709.91,-84.97C709.91,-103.89 709.91,-130.8 709.91,-130.8 709.91,-130.8 1409.28,-130.8 1409.28,-130.8"/>
<polygon fill="black" stroke="black" points="1409.28,-134.3 1419.28,-130.8 1409.28,-127.3 1409.28,-134.3"/>
</g>
<!-- RegisterComponent -->
<g id="node18" class="node">
<title>RegisterComponent</title>
<polygon fill="#ffffb3" stroke="black" points="611.99,-84.8 484.01,-84.8 484.01,-48.8 611.99,-48.8 611.99,-84.8"/>
<text text-anchor="middle" x="548" y="-62.6" font-family="Times,serif" font-size="14.00">RegisterComponent</text>
</g>
<!-- RegisterComponent&#45;&gt;AppModule -->
<g id="edge24" class="edge">
<title>RegisterComponent&#45;&gt;AppModule</title>
<path fill="none" stroke="black" d="M569.33,-84.93C569.33,-105.37 569.33,-135.8 569.33,-135.8 569.33,-135.8 1409.19,-135.8 1409.19,-135.8"/>
<polygon fill="black" stroke="black" points="1409.19,-139.3 1419.19,-135.8 1409.19,-132.3 1409.19,-139.3"/>
</g>
<!-- RegisterComponent&#45;&gt;AppModule -->
<g id="edge25" class="edge">
<title>RegisterComponent&#45;&gt;AppModule</title>
<path fill="none" stroke="black" d="M526.67,-85.08C526.67,-106.12 526.67,-137.8 526.67,-137.8 526.67,-137.8 1409.04,-137.8 1409.04,-137.8"/>
<polygon fill="black" stroke="black" points="1409.04,-141.3 1419.04,-137.8 1409.04,-134.3 1409.04,-141.3"/>
</g>
<!-- ScrapSummaryComponent -->
<g id="node19" class="node">
<title>ScrapSummaryComponent</title>
<polygon fill="#ffffb3" stroke="black" points="465.65,-84.8 298.35,-84.8 298.35,-48.8 465.65,-48.8 465.65,-84.8"/>
<text text-anchor="middle" x="382" y="-62.6" font-family="Times,serif" font-size="14.00">ScrapSummaryComponent</text>
</g>
<!-- ScrapSummaryComponent&#45;&gt;AppModule -->
<g id="edge26" class="edge">
<title>ScrapSummaryComponent&#45;&gt;AppModule</title>
<path fill="none" stroke="black" d="M354.06,-84.81C354.06,-107.29 354.06,-142.8 354.06,-142.8 354.06,-142.8 1409.29,-142.8 1409.29,-142.8"/>
<polygon fill="black" stroke="black" points="1409.29,-146.3 1419.29,-142.8 1409.29,-139.3 1409.29,-146.3"/>
</g>
<!-- ScrapSummaryComponent&#45;&gt;AppModule -->
<g id="edge27" class="edge">
<title>ScrapSummaryComponent&#45;&gt;AppModule</title>
<path fill="none" stroke="black" d="M409.94,-85.09C409.94,-107.01 409.94,-140.8 409.94,-140.8 409.94,-140.8 1409.15,-140.8 1409.15,-140.8"/>
<polygon fill="black" stroke="black" points="1409.15,-144.3 1419.15,-140.8 1409.15,-137.3 1409.15,-144.3"/>
</g>
<!-- SidebarComponent -->
<g id="node20" class="node">
<title>SidebarComponent</title>
<polygon fill="#ffffb3" stroke="black" points="280.1,-84.8 155.9,-84.8 155.9,-48.8 280.1,-48.8 280.1,-84.8"/>
<text text-anchor="middle" x="218" y="-62.6" font-family="Times,serif" font-size="14.00">SidebarComponent</text>
</g>
<!-- SidebarComponent&#45;&gt;AppModule -->
<g id="edge28" class="edge">
<title>SidebarComponent&#45;&gt;AppModule</title>
<path fill="none" stroke="black" d="M218,-85.12C218,-108.46 218,-145.8 218,-145.8 218,-145.8 1409.29,-145.8 1409.29,-145.8"/>
<polygon fill="black" stroke="black" points="1409.29,-149.3 1419.29,-145.8 1409.29,-142.3 1409.29,-149.3"/>
</g>
<!-- TableComponent -->
<g id="node21" class="node">
<title>TableComponent</title>
<polygon fill="#ffffb3" stroke="black" points="137.7,-84.8 24.3,-84.8 24.3,-48.8 137.7,-48.8 137.7,-84.8"/>
<text text-anchor="middle" x="81" y="-62.6" font-family="Times,serif" font-size="14.00">TableComponent</text>
</g>
<!-- TableComponent&#45;&gt;AppModule -->
<g id="edge29" class="edge">
<title>TableComponent&#45;&gt;AppModule</title>
<path fill="none" stroke="black" d="M81,-85.18C81,-109.08 81,-147.8 81,-147.8 81,-147.8 1409.32,-147.8 1409.32,-147.8"/>
<polygon fill="black" stroke="black" points="1409.32,-151.3 1419.32,-147.8 1409.32,-144.3 1409.32,-151.3"/>
</g>
<!-- AppComponent  -->
<g id="node24" class="node">
<title>AppComponent </title>
<polygon fill="#80b1d3" stroke="black" points="1515.44,-214.8 1406.56,-214.8 1406.56,-178.8 1515.44,-178.8 1515.44,-214.8"/>
<text text-anchor="middle" x="1461" y="-192.6" font-family="Times,serif" font-size="14.00">AppComponent </text>
</g>
<!-- AppModule&#45;&gt;AppComponent  -->
<g id="edge31" class="edge">
<title>AppModule&#45;&gt;AppComponent </title>
<path fill="none" stroke="black" stroke-dasharray="1,5" d="M1461,-149.91C1461,-149.91 1461,-168.79 1461,-168.79"/>
<polygon fill="black" stroke="black" points="1457.5,-168.79 1461,-178.79 1464.5,-168.79 1457.5,-168.79"/>
</g>
<!-- AppRoutingModule -->
<g id="node23" class="node">
<title>AppRoutingModule</title>
<polygon fill="#8dd3c7" stroke="black" points="3345.28,-84.8 3342.28,-88.8 3321.28,-88.8 3318.28,-84.8 3216.72,-84.8 3216.72,-48.8 3345.28,-48.8 3345.28,-84.8"/>
<text text-anchor="middle" x="3281" y="-62.6" font-family="Times,serif" font-size="14.00">AppRoutingModule</text>
</g>
<!-- AppRoutingModule&#45;&gt;AppModule -->
<g id="edge30" class="edge">
<title>AppRoutingModule&#45;&gt;AppModule</title>
<path fill="none" stroke="black" d="M3281,-85.18C3281,-109.08 3281,-147.8 3281,-147.8 3281,-147.8 1512.87,-147.8 1512.87,-147.8"/>
<polygon fill="black" stroke="black" points="1512.87,-144.3 1502.87,-147.8 1512.87,-151.3 1512.87,-144.3"/>
</g>
</g>
</svg>
